<svg xmlns="http://www.w3.org/2000/svg"  viewBox="0 0 72 72" width="64px" height="64px" clip-rule="evenodd" baseProfile="basic"><path d="M41.107,32.331c3.303,0,5.98,2.677,5.98,5.98c0,0,0,4.407,0,6.604c0,0.671-0.544,1.216-1.216,1.216	c-0.401,0-0.847,0-1.249,0c-0.671,0-1.216-0.544-1.216-1.216V39.23c0-1.771-1.449-3.22-3.22-3.22c-1.771,0-3.22,1.449-3.22,3.22	c0,0,0,3.704,0,5.684c0,0.671-0.544,1.216-1.216,1.216c-0.401,0-0.847,0-1.249,0c-0.671,0-1.216-0.544-1.216-1.216	c0-2.616,0-8.753,0-11.369c0-0.671,0.544-1.216,1.216-1.216c0.401,0,0.847,0,1.249,0c0.671,0,1.216,0.544,1.216,1.216v0.455	C38.041,32.969,39.499,32.331,41.107,32.331z"/><path d="M29.607,33.563c0,2.619,0,8.716,0,11.335c0,0.681-0.552,1.232-1.232,1.232c-0.391,0-0.824,0-1.215,0	c-0.681,0-1.232-0.552-1.232-1.232c0-2.619,0-8.716,0-11.335c0-0.681,0.552-1.232,1.232-1.232c0.391,0,0.824,0,1.215,0	C29.055,32.331,29.607,32.882,29.607,33.563z"/><path fill-rule="evenodd" d="M27.767,25.891c1.015,0,1.84,0.824,1.84,1.84c0,1.015-0.824,1.84-1.84,1.84	c-1.015,0-1.84-0.824-1.84-1.84C25.927,26.715,26.751,25.891,27.767,25.891z" clip-rule="evenodd"/><path fill="#060000" d="M36,60c-13.234,0-24-10.766-24-24s10.766-24,24-24s24,10.766,24,24S49.234,60,36,60z M36,20.002	c-8.821,0-15.998,7.176-15.998,15.998S27.179,51.998,36,51.998S51.998,44.821,51.998,36S44.821,20.002,36,20.002z"/></svg>